# xmcd
#
# Track frame offsets:
#	150
#	24550
#	55990
#	76967
#	97035
#	120165
#	124502
#	147237
#	171285
#	207240
#	227400
#	268062
#
# Disc length: 3777 seconds
#
# Revision: 6
# Processed by: cddbd v1.5.2PL0 Copyright (c) Steve Scherf et al.
# Submitted via: EasyCDDAExtractor 12.1.0.1
#
DISCID=9c0ebf0c
DTITLE=Patricia Barber - Café blue
DYEAR=1994
DGENRE=Blues
TTITLE0=What A Shame
TTITLE1=Mourning Grace
TTITLE2=The Thrill is Gone
TTITLE3=Romanesque
TTITLE4=Yellow Car III
TTITLE5=Wood is a Pleasant Thing to Think About
TTITLE6=Inch Worm
TTITLE7=Ode to Billy Joe
TTITLE8=Too Rich for my Blood
TTITLE9=A Taste of Honey
TTITLE10=Nardis
TTITLE11=Manha de Carnaval
EXTD=
EXTT0=
EXTT1=
EXTT2=
EXTT3=
EXTT4=
EXTT5=
EXTT6=
EXTT7=
EXTT8=
EXTT9=
EXTT10=
EXTT11=
PLAYORDER=
